# xmcd
#
# Track frame offsets: 
#        150
#        15354
#        32358
#        54122
#        60497
#        74863
#        89162
#        101400
#        124935
#        133241
#        140347
#        147141
#        155605
#        167576
#
# Disc length: 2578 seconds
#
# Revision: 1
# Processed by: cddbd v1.5.2PL0 Copyright (c) Steve Scherf et al.
# Submitted via: ExactAudioCopy v0.99pb5
#
DISCID=c00a100e
DTITLE=Enrico Pieranunzi - WANDERING
DYEAR=2009
DGENRE=Jazz
TTITLE0=Teensblues
TTITLE1=Wandering 1
TTITLE2=Fermati A Guardare Il Giorno
TTITLE3=Improstinato 1
TTITLE4=Wandering 2
TTITLE5=Foor-Fee
TTITLE6=Improvisions 1
TTITLE7=Rosa Del Mare
TTITLE8=Dark
TTITLE9=Wandering 3
TTITLE10=Improvisions 2
TTITLE11=Wandering 4
TTITLE12=Improstinato 2
TTITLE13=For My True Love
EXTD=YEAR: 2009
EXTT0=
EXTT1=
EXTT2=
EXTT3=
EXTT4=
EXTT5=
EXTT6=
EXTT7=
EXTT8=
EXTT9=
EXTT10=
EXTT11=
EXTT12=
EXTT13=
PLAYORDER=
